<?xml version="1.0" standalone="no"?>
<!DOCTYPE svg PUBLIC "-//W3C//DTD SVG 20010904//EN"
 "http://www.w3.org/TR/2001/REC-SVG-20010904/DTD/svg10.dtd">
<svg version="1.0" xmlns="http://www.w3.org/2000/svg"
 width="1500.000000pt" height="1500.000000pt" viewBox="0 0 1500.000000 1500.000000"
 preserveAspectRatio="xMidYMid meet">

<g transform="translate(0.000000,1500.000000) scale(0.100000,-0.100000)"
fill="#000000" stroke="none">
<path d="M7200 12384 c-19 -2 -91 -9 -160 -14 -765 -65 -1547 -339 -2218 -776
-295 -193 -505 -366 -778 -638 -274 -274 -443 -480 -637 -777 -438 -670 -688
-1382 -779 -2214 -20 -184 -17 -780 5 -973 114 -999 480 -1865 1115 -2632 123
-148 464 -490 612 -612 690 -569 1467 -927 2327 -1072 303 -51 431 -60 813
-60 382 0 511 9 813 60 863 146 1639 503 2327 1072 151 125 491 466 616 617
631 765 997 1631 1111 2627 25 217 25 799 0 1016 -93 812 -348 1524 -782 2182
-199 302 -392 535 -656 795 -404 397 -801 677 -1304 921 -512 248 -1023 394
-1610 460 -131 15 -726 28 -815 18z m715 -54 c862 -79 1669 -371 2359 -855
683 -479 1232 -1124 1592 -1870 259 -538 408 -1081 465 -1705 16 -174 16 -626
0 -800 -68 -738 -272 -1393 -627 -2012 -587 -1024 -1546 -1811 -2659 -2183
-513 -171 -994 -249 -1545 -249 -477 0 -893 58 -1335 185 -1317 377 -2413
1295 -3015 2524 -604 1231 -660 2643 -156 3925 123 311 335 706 528 980 862
1225 2202 1977 3689 2070 165 10 542 5 704 -10z"/>
<path d="M4768 11194 c-364 -56 -685 -291 -853 -624 -301 -597 -26 -1328 595
-1583 301 -123 627 -114 923 25 l88 42 292 -292 c320 -319 340 -334 446 -334
74 -1 129 15 180 52 80 59 131 178 116 273 -16 99 -32 119 -336 417 l-290 285
50 100 c292 582 31 1291 -574 1557 -55 25 -166 58 -288 87 -63 15 -240 12
-349 -5z m317 -579 c202 -52 367 -215 420 -415 19 -72 19 -220 0 -295 -52
-202 -208 -358 -410 -410 -75 -19 -223 -19 -295 0 -200 53 -363 218 -415 420
-32 126 -15 277 47 405 64 132 216 254 368 294 73 19 211 20 285 1z m1170
-1885 c10 -11 16 -20 13 -20 -3 0 -13 9 -23 20 -10 11 -16 20 -13 20 3 0 13
-9 23 -20z"/>
<path d="M7370 8794 c-582 -73 -1029 -482 -1146 -1049 -25 -124 -25 -366 0
-490 109 -527 502 -919 1036 -1032 117 -24 363 -24 480 0 537 113 924 500
1037 1037 24 117 24 363 0 480 -69 328 -242 604 -497 796 -149 113 -354 205
-532 239 -82 16 -310 27 -378 19z m355 -608 c221 -75 384 -238 462 -461 25
-73 28 -92 28 -225 0 -133 -3 -152 -28 -225 -39 -111 -98 -207 -177 -285 -78
-79 -174 -138 -285 -177 -73 -25 -92 -28 -225 -28 -133 0 -152 3 -225 28 -224
78 -386 241 -461 462 -39 114 -45 277 -15 395 67 265 258 459 523 530 110 30
294 23 403 -14z"/>
<path d="M8699 6539 l-1 -34 -11 28 c-10 25 -15 28 -42 23 -121 -24 -227 -178
-212 -308 12 -101 31 -124 334 -429 l286 -288 -41 -89 c-191 -411 -137 -862
148 -1223 204 -259 558 -429 895 -429 299 0 603 129 818 346 430 437 449 1098
43 1576 -62 73 -186 174 -284 231 -330 192 -723 208 -1074 45 l-89 -41 -287
286 c-306 304 -328 322 -432 334 l-50 6 -1 -34z m346 -579 c176 -176 318 -320
315 -320 -3 0 -149 144 -325 320 -176 176 -318 320 -315 320 3 0 149 -144 325
-320z m435 -363 c0 -2 -19 -21 -42 -42 -23 -22 -36 -31 -28 -20 18 27 70 72
70 62z m720 -92 c200 -53 363 -218 415 -420 19 -76 19 -204 0 -280 -52 -203
-217 -368 -420 -420 -76 -19 -204 -19 -280 0 -202 52 -367 215 -420 415 -19
73 -19 215 1 294 47 187 209 353 398 407 77 22 231 24 306 4z"/>
</g>
</svg>
